<?xml version="1.0" encoding="utf-8"?>
<!-- Generator: Adobe Illustrator 19.0.0, SVG Export Plug-In . SVG Version: 6.00 Build 0)  -->
<svg version="1.1" id="Layer_1" xmlns="http://www.w3.org/2000/svg" xmlns:xlink="http://www.w3.org/1999/xlink" x="0px" y="0px"
	 viewBox="6 -6.3 72.3 72.3" style="enable-background:new 6 -6.3 72.3 72.3;" xml:space="preserve">
<path d="M42.2-6.3C22.3-6.3,6.1,9.9,6.1,29.9C6.1,49.8,22.3,66,42.2,66c20,0,36.1-16.2,36.1-36.1C78.4,9.9,62.2-6.3,42.2-6.3z
	 M65.2,10.4c4.1,4.8,6.7,10.8,7.1,17.5c-6.5-0.3-14.3-0.3-20.6,0.2c-0.8-2-1.6-4-2.5-5.8C56.4,19.1,62,15,65.2,10.4z M42.2-0.2
	c7.3,0,14,2.6,19.2,6.9c-3.3,4.1-8.4,7.7-14.8,10.5c-3.5-6.5-7.5-12.1-11.8-16.5C37.2,0.1,39.7-0.2,42.2-0.2z M28.6,3
	c4.4,4.3,8.4,9.8,12,16.3c-6.8,2.1-14.6,3.3-22.9,3.3c-1.6,0-3.1-0.1-4.7-0.1C15.2,14,21,6.9,28.6,3z M12.2,28.4
	c1.7,0.1,3.4,0.1,5.2,0.1c9.5-0.1,18.3-1.6,25.9-4c0.7,1.5,1.4,3,2,4.6c-1,0.2-2,0.5-2.7,0.8c-10.4,4.3-18.5,11.4-23,19.9
	c-4.6-5.4-7.5-12.3-7.5-19.9C12.1,29.4,12.1,28.9,12.2,28.4z M42.2,60c-7,0-13.4-2.4-18.5-6.3c4-7.9,11.2-14.5,20.2-18.6
	c0.9-0.4,2-0.7,3.3-1c1.1,3,2,6.1,2.9,9.3c1.3,5,2.2,9.9,2.8,14.7C49.6,59.3,46,60,42.2,60z M58.5,55.2c-0.6-4.8-1.5-9.8-2.8-14.8
	c-0.6-2.4-1.4-4.8-2.2-7.1c5.9-0.5,13-0.4,18.6,0C71.1,42.4,65.9,50.4,58.5,55.2z"/>
</svg>
