<svg xmlns="http://www.w3.org/2000/svg" xmlns:xlink="http://www.w3.org/1999/xlink" preserveAspectRatio="xMidYMid" width="72.28" height="72.28" viewBox="0 0 77 77">
  <defs>
    <style>
      .cls-1 {
        fill: #fff;
        fill-rule: evenodd;
      }
    </style>
  </defs>
  <path d="M38.494,0.009 C17.231,0.009 -0.008,17.242 -0.008,38.500 C-0.008,59.761 17.231,76.991 38.494,76.991 C59.760,76.991 76.996,59.761 76.996,38.500 C76.996,17.242 59.760,0.009 38.494,0.009 ZM62.925,17.736 C67.256,22.826 70.011,29.279 70.483,36.366 C63.551,35.996 55.249,36.002 48.577,36.629 C47.741,34.501 46.873,32.414 45.939,30.413 C53.635,27.090 59.553,22.716 62.925,17.736 ZM38.494,6.425 C46.276,6.425 53.410,9.195 58.964,13.804 C55.476,18.225 50.015,22.053 43.191,24.948 C39.459,18.060 35.175,12.124 30.602,7.443 C33.133,6.798 35.765,6.425 38.494,6.425 ZM23.978,9.921 C28.613,14.521 32.965,20.408 36.770,27.272 C29.524,29.479 21.220,30.748 12.369,30.748 C10.695,30.748 9.048,30.684 7.414,30.595 C9.714,21.562 15.840,14.061 23.978,9.921 ZM6.464,36.967 C8.289,37.046 10.134,37.083 12.006,37.060 C22.105,36.930 31.527,35.366 39.600,32.775 C40.354,34.357 41.077,35.984 41.768,37.647 C40.665,37.902 39.687,38.188 38.899,38.514 C27.845,43.141 19.149,50.627 14.430,59.671 C9.453,54.016 6.408,46.622 6.408,38.500 C6.408,37.985 6.440,37.476 6.464,36.967 ZM38.494,70.575 C31.077,70.575 24.267,68.036 18.831,63.812 C23.100,55.357 30.720,48.365 40.332,44.008 C41.243,43.595 42.442,43.251 43.820,42.953 C44.958,46.128 45.992,49.415 46.883,52.813 C48.276,58.130 49.248,63.372 49.852,68.470 C46.318,69.811 42.500,70.575 38.494,70.575 ZM55.835,65.463 C55.230,60.313 54.250,55.019 52.844,49.649 C52.161,47.044 51.376,44.520 50.543,42.042 C56.836,41.530 64.383,41.608 70.372,42.042 C69.284,51.879 63.758,60.359 55.835,65.463 Z" class="cls-1"/>
</svg>
