<?xml version="1.0" encoding="utf-8"?>
<!-- Generator: Adobe Illustrator 19.0.0, SVG Export Plug-In . SVG Version: 6.00 Build 0)  -->
<svg version="1.1" id="Layer_1" xmlns="http://www.w3.org/2000/svg" xmlns:xlink="http://www.w3.org/1999/xlink" x="0px" y="0px"
	 viewBox="16 0 92 61" style="enable-background:new 16 0 92 61;" xml:space="preserve">
<path d="M107.8,58.1L77.4,27.9l30.4-25.2c0.1,0.4,0.2,0.7,0.2,1.1v53.4C108,57.5,107.9,57.8,107.8,58.1z M19.2,0.1
	c0.2,0,0.4-0.1,0.7-0.1h84.3c0.2,0,0.5,0.1,0.7,0.1L62,35.6L19.2,0.1z M16.2,58.1c-0.1-0.3-0.2-0.6-0.2-0.9V3.8
	c0-0.4,0.1-0.8,0.2-1.1l30.4,25.2L16.2,58.1z M60.8,39.6c0.4,0.3,0.8,0.4,1.2,0.4c0.4,0,0.9-0.1,1.2-0.4l11.2-9.3l30.7,30.5
	c-0.3,0.1-0.6,0.2-0.9,0.2H19.8c-0.3,0-0.6-0.1-0.9-0.2l30.7-30.5L60.8,39.6z"/>
</svg>
