<svg xmlns="http://www.w3.org/2000/svg" xmlns:xlink="http://www.w3.org/1999/xlink" preserveAspectRatio="xMidYMid" width="92" height="61" viewBox="0 0 92 61">
  <defs>
    <style>
      .cls-1 {
        fill: #fff;
        fill-rule: evenodd;
      }
    </style>
  </defs>
  <path d="M91.817,58.115 L61.393,27.857 L91.772,2.685 C91.888,3.050 92.000,3.418 92.000,3.820 L92.000,57.187 C92.000,57.515 91.892,57.809 91.817,58.115 ZM3.159,0.146 C3.388,0.101 3.601,0.008 3.833,0.008 L88.167,0.008 C88.410,0.008 88.620,0.101 88.848,0.146 L46.000,35.645 L3.159,0.146 ZM0.191,58.118 C0.112,57.813 -0.000,57.519 -0.000,57.187 L-0.000,3.820 C-0.000,3.415 0.116,3.046 0.236,2.681 L30.618,27.861 L0.191,58.118 ZM44.776,39.591 C45.132,39.888 45.566,40.034 46.000,40.034 C46.442,40.034 46.876,39.888 47.228,39.591 L58.432,30.310 L89.106,60.810 C88.800,60.892 88.500,60.999 88.167,60.999 L3.833,60.999 C3.508,60.999 3.208,60.892 2.905,60.810 L33.575,30.314 L44.776,39.591 Z" class="cls-1"/>
</svg>
