<svg xmlns="http://www.w3.org/2000/svg" xmlns:xlink="http://www.w3.org/1999/xlink" preserveAspectRatio="xMidYMid" width="73.313" height="70" viewBox="0 0 177 169">
  <defs>
    <style>
      .cls-1 {
        fill: #000;
        fill-rule: evenodd;
      }
    </style>
  </defs>
  <path d="M139.057,168.999 L139.057,107.997 C139.057,92.668 133.572,82.210 119.838,82.210 C109.355,82.210 103.115,89.266 100.372,96.075 C99.366,98.506 99.119,101.913 99.119,105.320 L99.119,168.994 L61.177,168.994 C61.177,168.994 61.678,65.668 61.177,54.972 L99.119,54.972 L99.119,71.129 C104.156,63.357 113.171,52.295 133.313,52.295 C158.277,52.295 176.995,68.591 176.995,103.614 L176.995,168.999 L139.057,168.999 ZM21.214,39.406 L20.964,39.406 C8.231,39.406 -0.001,30.645 -0.001,19.703 C-0.001,8.515 8.486,0.000 21.465,0.000 C34.443,0.000 42.433,8.519 42.680,19.703 C42.680,30.641 34.443,39.406 21.214,39.406 ZM40.183,168.994 L2.245,168.994 L2.245,54.968 L40.183,54.968 L40.183,168.994 Z" class="cls-1"/>
</svg>
