<?xml version="1.0" encoding="utf-8"?>
<!-- Generator: Adobe Illustrator 19.0.0, SVG Export Plug-In . SVG Version: 6.00 Build 0)  -->
<svg version="1.1" id="Layer_1" xmlns="http://www.w3.org/2000/svg" xmlns:xlink="http://www.w3.org/1999/xlink" x="0px" y="0px"
	 viewBox="16 -7.2 92 74.2" style="enable-background:new 16 -7.2 92 74.2;" xml:space="preserve">
<path d="M108,1.6c-3.4,1.5-7,2.5-10.8,2.9c3.9-2.3,6.9-6,8.3-10.4c-3.6,2.1-7.7,3.7-12,4.5C90-4.9,85.1-7.2,79.7-7.2
	c-10.4,0-18.9,8.4-18.9,18.7c0,1.5,0.2,2.9,0.5,4.3C45.6,15,31.7,7.6,22.4-3.7c-1.6,2.8-2.6,6-2.6,9.4c0,6.5,3.3,12.2,8.4,15.6
	c-3.1-0.1-6-0.9-8.5-2.3c0,0.1,0,0.2,0,0.2c0,9.1,6.5,16.6,15.1,18.4c-1.6,0.4-3.3,0.7-5,0.7c-1.2,0-2.4-0.1-3.6-0.3
	c2.4,7.4,9.4,12.8,17.6,13c-6.5,5-14.6,8-23.4,8c-1.5,0-3-0.1-4.5-0.3c8.4,5.3,18.3,8.4,28.9,8.4c34.7,0,53.7-28.5,53.7-53.3
	c0-0.8,0-1.6-0.1-2.4C102.3,8.7,105.5,5.4,108,1.6z"/>
</svg>
