<svg xmlns="http://www.w3.org/2000/svg" xmlns:xlink="http://www.w3.org/1999/xlink" preserveAspectRatio="xMidYMid" width="91.993" height="74.157" viewBox="0 0 98 79">
  <defs>
    <style>
      .cls-1 {
        fill: #fff;
        fill-rule: evenodd;
      }
    </style>
  </defs>
  <path d="M97.997,9.350 C94.391,10.936 90.517,12.008 86.449,12.490 C90.601,10.023 93.788,6.114 95.288,1.458 C91.404,3.743 87.101,5.404 82.522,6.298 C78.854,2.422 73.628,0.000 67.847,0.000 C56.744,0.000 47.742,8.929 47.742,19.944 C47.742,21.507 47.919,23.028 48.262,24.488 C31.552,23.656 16.738,15.716 6.822,3.650 C5.092,6.596 4.100,10.020 4.100,13.677 C4.100,20.596 7.651,26.701 13.044,30.277 C9.748,30.173 6.649,29.277 3.938,27.782 C3.936,27.865 3.936,27.948 3.936,28.032 C3.936,37.695 10.867,45.754 20.063,47.589 C18.376,48.044 16.600,48.289 14.766,48.289 C13.469,48.289 12.211,48.162 10.984,47.930 C13.543,55.854 20.966,61.619 29.766,61.781 C22.884,67.131 14.217,70.319 4.795,70.319 C3.172,70.319 1.573,70.224 -0.001,70.040 C8.897,75.698 19.466,79.000 30.820,79.000 C67.801,79.000 88.023,48.609 88.023,22.256 C88.023,21.391 88.004,20.532 87.965,19.677 C91.893,16.861 95.301,13.350 97.997,9.350 Z" class="cls-1"/>
</svg>
